<svg width="112" height="108" viewBox="0 0 112 108" fill="none" xmlns="http://www.w3.org/2000/svg">
<path d="M103.887 92.5547H67.653L61.9539 99.1379L59.6765 101.768C57.8747 103.846 54.6313 103.846 52.8332 101.768L50.5558 99.1379L44.8567 92.5547H9.40645C6.72038 92.5547 4.547 94.7135 4.547 97.3733V107.504H107.978V96.6033C107.974 94.3672 106.146 92.5547 103.887 92.5547Z" fill="#3C88C4"/>
<path d="M52.8369 101.765C54.635 103.842 57.8784 103.842 59.6802 101.765L61.9577 99.1345L67.6567 92.5513H99.0203V24.2772C99.0203 21.6505 96.8766 19.5249 94.2277 19.5249H18.4938C15.6665 19.5249 13.3705 21.7979 13.3705 24.605V92.555H44.8604L50.5595 99.1381L52.8369 101.765Z" fill="#5EA9DE"/>
<path d="M93.0649 19.5247H18.9842C18.9842 14.3082 23.2492 10.0791 28.5099 10.0791H84.0147C89.0153 10.0791 93.0686 14.0983 93.0686 19.0568V19.5247H93.0649Z" fill="#24679A"/>
<path d="M13.0994 62.0594H13.3706V28.6021H12.1483C9.856 28.6021 7.99841 30.444 7.99841 32.717V57.0014C7.99841 59.7938 10.2832 62.0594 13.0994 62.0594Z" fill="#F8AB37"/>
<path d="M8.03558 55.6639C3.87086 54.7687 0.716675 50.4806 0.716675 45.3305C0.716675 40.254 3.92287 36.0175 7.99843 35.0376L8.03558 55.6639Z" fill="#F39112"/>
<path d="M82.6252 10.0792C77.6766 4.09652 67.6196 0 56.0245 0C44.4294 0 34.3724 4.09652 29.4238 10.0792H82.6252Z" fill="#FECC4F"/>
<path d="M99.2878 61.9821H99.0166V28.521H100.239C102.531 28.521 104.389 30.363 104.389 32.6359V56.9203C104.392 59.7164 102.108 61.9821 99.2878 61.9821Z" fill="#F8AB37"/>
<path d="M104.355 55.5828C108.52 54.6877 111.674 50.4032 111.674 45.2494C111.674 40.173 108.468 35.9365 104.393 34.9565L104.355 55.5828Z" fill="#F39112"/>
<path d="M75.455 10.0793C71.8698 6.48745 64.5918 4.03027 56.1955 4.03027C47.7992 4.03027 40.5174 6.48745 36.936 10.0793H75.455Z" fill="#F39112"/>
<path d="M36.3713 59.2154C44.0923 59.2154 50.3515 53.0089 50.3515 45.3528C50.3515 37.6967 44.0923 31.4902 36.3713 31.4902C28.6502 31.4902 22.3911 37.6967 22.3911 45.3528C22.3911 53.0089 28.6502 59.2154 36.3713 59.2154Z" fill="white"/>
<path d="M36.3712 54.0063C41.191 54.0063 45.0982 50.132 45.0982 45.3527C45.0982 40.5735 41.191 36.6992 36.3712 36.6992C31.5515 36.6992 27.6443 40.5735 27.6443 45.3527C27.6443 50.132 31.5515 54.0063 36.3712 54.0063Z" fill="#DD2E44"/>
<path d="M75.8822 59.2154C83.6033 59.2154 89.8624 53.0089 89.8624 45.3528C89.8624 37.6967 83.6033 31.4902 75.8822 31.4902C68.1611 31.4902 61.902 37.6967 61.902 45.3528C61.902 53.0089 68.1611 59.2154 75.8822 59.2154Z" fill="white"/>
<path d="M75.8822 54.0063C80.7019 54.0063 84.6091 50.132 84.6091 45.3527C84.6091 40.5735 80.7019 36.6992 75.8822 36.6992C71.0624 36.6992 67.1552 40.5735 67.1552 45.3527C67.1552 50.132 71.0624 54.0063 75.8822 54.0063Z" fill="#DD2E44"/>
<path d="M82.2909 86.1744H29.9626C25.783 86.1744 22.3911 82.8146 22.3911 78.6665C22.3911 74.5221 25.7793 71.1587 29.9626 71.1587H82.2909C86.4705 71.1587 89.8624 74.5184 89.8624 78.6665C89.8587 82.8109 86.4705 86.1744 82.2909 86.1744Z" fill="#CBD7DD"/>
<path d="M38.4815 71.1587H28.9297V86.1707H38.4815V71.1587Z" fill="#F6FAFC"/>
<path d="M53.788 71.1587H44.2363V86.1707H53.788V71.1587Z" fill="#F6FAFC"/>
<path d="M68.7453 71.1587H59.1936V86.1707H68.7453V71.1587Z" fill="#F6FAFC"/>
<path d="M84.2302 71.1587H74.6785V86.1707H84.2302V71.1587Z" fill="#F6FAFC"/>
</svg>
